<?xml version="1.0" standalone="no"?>
<!DOCTYPE svg PUBLIC "-//W3C//DTD SVG 20010904//EN"
 "http://www.w3.org/TR/2001/REC-SVG-20010904/DTD/svg10.dtd">
<svg version="1.0" xmlns="http://www.w3.org/2000/svg"
 width="260.000000pt" height="260.000000pt" viewBox="0 0 260.000000 260.000000"
 preserveAspectRatio="xMidYMid meet">
<metadata>
Created by potrace 1.11, written by Peter Selinger 2001-2013
</metadata>
<g transform="translate(0.000000,260.000000) scale(0.100000,-0.100000)"
fill="#000000" stroke="none">
<path d="M288 1438 c-38 -10 -38 -11 -38 -60 0 -47 1 -50 23 -44 82 23 113 27
140 17 59 -23 21 -81 -53 -81 -28 0 -30 -2 -30 -40 0 -39 1 -40 34 -40 19 0
47 -4 61 -10 22 -8 26 -15 23 -42 -6 -60 -58 -69 -185 -32 -22 6 -23 3 -23
-44 0 -50 0 -51 38 -61 20 -6 69 -11 107 -11 126 1 185 46 185 145 0 35 -6 52
-25 70 -13 14 -32 25 -42 25 -14 1 -13 3 6 14 32 17 50 53 51 96 0 45 -23 78
-66 96 -38 16 -150 17 -206 2z"/>
<path d="M2163 1430 c-50 -22 -83 -70 -83 -120 0 -73 49 -119 148 -141 67 -16
97 -40 82 -68 -5 -11 -23 -22 -40 -26 -35 -8 -132 18 -150 40 -7 8 -19 15 -27
15 -11 0 -13 -13 -11 -57 l3 -57 40 -12 c22 -7 74 -13 116 -13 61 -1 84 4 119
22 94 50 109 175 26 227 -17 10 -62 26 -99 36 -74 18 -95 39 -72 70 19 27 100
25 149 -4 21 -12 41 -22 47 -22 5 0 9 24 9 54 l0 54 -44 11 c-69 17 -165 13
-213 -9z"/>
<path d="M703 1312 c-83 -113 -93 -131 -93 -169 l0 -43 95 0 95 0 0 -50 0 -50
60 0 60 0 0 50 c0 49 1 50 30 50 28 0 30 2 30 40 0 38 -2 40 -30 40 l-30 0 0
130 0 130 -62 0 -63 -1 -92 -127z m97 -72 l0 -60 -45 0 c-25 0 -45 2 -45 5 0
7 81 115 86 115 2 0 4 -27 4 -60z"/>
<path d="M1210 1220 l0 -220 60 0 60 0 0 80 c0 63 3 80 15 80 8 0 42 -36 76
-80 l62 -80 75 0 c71 0 74 1 60 18 -8 9 -42 51 -76 93 l-61 76 24 11 c47 22
75 110 51 166 -26 63 -62 76 -213 76 l-133 0 0 -220z m208 124 c26 -18 30 -65
7 -84 -8 -6 -32 -14 -55 -17 l-40 -6 0 62 0 61 33 0 c18 0 43 -7 55 -16z"/>
<path d="M1650 1266 c0 -163 1 -175 23 -207 36 -54 78 -70 174 -67 91 3 123
19 158 79 17 30 20 56 24 202 l3 167 -61 0 -61 0 -1 -142 c0 -84 -5 -157 -12
-177 -14 -40 -50 -57 -90 -42 -37 14 -47 62 -47 224 l0 137 -55 0 -55 0 0
-174z"/>
</g>
</svg>
